{"title":"Stretch.2014.720p.WEB-DL.H264.AAC.Mp4.Raven","uid":11170659,"size":854373687,"categoryP":"video","categoryS":"hd___movies","magnet":"?xt=urn:btih:2e7c70d42155bf07122d744074ad4aa2424644a3&amp;dn=Stretch.2014.720p.WEB-DL.H264.AAC.Mp4.Raven&amp;tr=udp%3A%2F%2Ftracker.openbittorrent.com%3A80&amp;tr=udp%3A%2F%2Fopen.demonii.com%3A1337&amp;tr=udp%3A%2F%2Ftracker.coppersurfer.tk%3A6969&amp;tr=udp%3A%2F%2Fexodus.desync.com%3A6969","seeders":3,"leechers":0,"uploader":"Raven1969","files":-1,"time":1412696269,"description":"Stretch.2014.720p.WEB-DL.H264.AAC.Mp4.Raven.\n\n\n\n\nEnglish subs included.\n\n\n\n\nRuntime:\n94 Mins 28 Seconds\n\n\n\nScreen images:\n\n\n &lt;a href=&quot;\nhttp://i.imgur.com/4nfINQy.png&quot; rel=&quot;nofollow&quot; target=&quot;_NEW&quot;&gt;\nhttp://i.imgur.com/4nfINQy.png&lt;/a&gt;\n\n\n &lt;a href=&quot;\nhttp://i.imgur.com/HUNFujN.png&quot; rel=&quot;nofollow&quot; target=&quot;_NEW&quot;&gt;\nhttp://i.imgur.com/HUNFujN.png&lt;/a&gt;\n\n\n &lt;a href=&quot;\nhttp://i.imgur.com/WmnP0Oz.png&quot; rel=&quot;nofollow&quot; target=&quot;_NEW&quot;&gt;\nhttp://i.imgur.com/WmnP0Oz.png&lt;/a&gt;\n\n\n &lt;a href=&quot;\nhttp://i.imgur.com/MMYVO7v.png&quot; rel=&quot;nofollow&quot; target=&quot;_NEW&quot;&gt;\nhttp://i.imgur.com/MMYVO7v.png&lt;/a&gt;\n\n\n &lt;a href=&quot;\nhttp://i.imgur.com/NOeq8Gr.png&quot; rel=&quot;nofollow&quot; target=&quot;_NEW&quot;&gt;\nhttp://i.imgur.com/NOeq8Gr.png&lt;/a&gt;\n\n\n &lt;a href=&quot;\nhttp://i.imgur.com/0Id8mrO.png&quot; rel=&quot;nofollow&quot; target=&quot;_NEW&quot;&gt;\nhttp://i.imgur.com/0Id8mrO.png&lt;/a&gt;\n\n\n\nIMDB:\n\n\n\n &lt;a href=&quot;\nhttp://www.imdb.com/title/tt2494280&quot; rel=&quot;nofollow&quot; target=&quot;_NEW&quot;&gt;\nhttp://www.imdb.com/title/tt2494280&lt;/a&gt;\n\n\n\n\nIMDB Rating:  8.2\n\n\n\n\nStoryline:\n\nA hard-luck limo driver struggling to go straight and pay off a debt to his bookie takes on a job with a crazed passenger whose sought-after ledger implicates some seriously dangerous criminals.\n\n\n\n\nGeneral\nFormat                                   : MPEG-4\nFormat profile                           : Base Media\nCodec ID                                 : isom\nFile size                                : 809 MiB\nDuration                                 : 1h 34mn\nOverall bit rate mode                    : Variable\nOverall bit rate                         : 1 197 Kbps\nEncoded date                             : UTC 2014-10-07 13:26:42\nTagged date                              : UTC 2014-10-07 13:26:42\nWriting application                      : My MP4Box GUI 0.6.0.6 &lt;http://my-mp4box-gui.zymichost.com&gt;\n\nVideo\nID                                       : 1\nFormat                                   : AVC\nFormat/Info                              : Advanced Video Codec\nFormat profile                           : &lt;a class=&quot;__cf_email__&quot; href=&quot;/cdn-cgi/l/email-protection&quot; data-cfemail=&quot;3f775658577f730b110f&quot;&gt;[email&amp;#160;protected]&lt;/a&gt;&lt;script cf-hash='f9e31' type=&quot;text/javascript&quot;&gt;\n/* &lt;![CDATA[ */!function(){try{var t=&quot;currentScript&quot;in document?document.currentScript:function(){for(var t=document.getElementsByTagName(&quot;script&quot;),e=t.length;e--;)if(t[e].getAttribute(&quot;cf-hash&quot;))return t[e]}();if(t&amp;&amp;t.previousSibling){var e,r,n,i,c=t.previousSibling,a=c.getAttribute(&quot;data-cfemail&quot;);if(a){for(e=&quot;&quot;,r=parseInt(a.substr(0,2),16),n=2;a.length-n;n+=2)i=parseInt(a.substr(n,2),16)^r,e+=String.fromCharCode(i);e=document.createTextNode(e),c.parentNode.replaceChild(e,c)}}}catch(u){}}();/* ]]&gt; */&lt;/script&gt;\nFormat settings, CABAC                   : Yes\nFormat settings, ReFrames                : 5 frames\nCodec ID                                 : avc1\nCodec ID/Info                            : Advanced Video Coding\nDuration                                 : 1h 34mn\nBit rate                                 : 1 100 Kbps\nMaximum bit rate                         : 4 931 Kbps\nWidth                                    : 1 280 pixels\nHeight                                   : 532 pixels\nDisplay aspect ratio                     : 2.40:1\nFrame rate mode                          : Constant\nFrame rate                               : 23.976 fps\nColor space                              : YUV\nChroma subsampling                       : 4:2:0\nBit depth                                : 8 bits\nScan type                                : Progressive\nBits/(Pixel*Frame)                       : 0.067\nStream size                              : 743 MiB (92%)\nTitle                                    : Stretch.2014.720p.WEB-DL.H264.AAC.Mp4.Raven.mp4\nWriting library                          : x264 core 142 \nLanguage                                 : English\nEncoded date                             : UTC 2014-10-07 13:21:57\nTagged date                              : UTC 2014-10-07 13:26:48\n\nAudio\nID                                       : 3\nFormat                                   : AAC\nFormat/Info                              : Advanced Audio Codec\nFormat profile                           : LC\nCodec ID                                 : 40\nDuration                                 : 1h 34mn\nBit rate mode                            : Variable\nBit rate                                 : 93.4 Kbps\nMaximum bit rate                         : 100 Kbps\nChannel(s)                               : 2 channels\nChannel positions                        : Front: L R\nSampling rate                            : 48.0 KHz\nCompression mode                         : Lossy\nStream size                              : 63.1 MiB (8%)\nTitle                                    : Audio AAC LC 96kb.aac\nEncoded date                             : UTC 2014-10-07 13:26:44\nTagged date                              : UTC 2014-10-07 13:26:48\n\nText\nID                                       : 2\nFormat                                   : Timed Text\nMuxing mode                              : sbtl\nCodec ID                                 : tx3g\nDuration                                 : 1h 34mn\nBit rate mode                            : Variable\nBit rate                                 : 76 bps\nStream size                              : 52.8 KiB (0%)\nTitle                                    : Stretch.2014.720p.WEB-DL.H264.AAC.Mp4.Raven.mp4\nLanguage                                 : English\nEncoded date                             : UTC 2014-10-07 13:22:05\nTagged date                              : UTC 2014-10-07 13:26:48\n\n\n\nPLEASE  SEED FOR AS LONG AS POSSIBLE TO KEEP THE TORRENT ALIVE :-)\n\n\n\n\n\n","torrent":{"xt":"urn:btih:2e7c70d42155bf07122d744074ad4aa2424644a3","amp;dn":"Stretch.2014.720p.WEB-DL.H264.AAC.Mp4.Raven","amp;tr":["udp%3A%2F%2Ftracker.openbittorrent.com%3A80","udp%3A%2F%2Fopen.demonii.com%3A1337","udp%3A%2F%2Ftracker.coppersurfer.tk%3A6969","udp%3A%2F%2Fexodus.desync.com%3A6969"],"infoHash":"2e7c70d42155bf07122d744074ad4aa2424644a3","infoHashBuffer":{"type":"Buffer","data":[46,124,112,212,33,85,191,7,18,45,116,64,116,173,74,162,66,70,68,163]},"announce":[],"urlList":[]}}